<svg version="1" xmlns="http://www.w3.org/2000/svg" width="933.333" height="933.333" viewBox="0 0 700.000000 700.000000"><path d="M0 306.5V525H28.7l.5 10.2c.4 9 .9 11.1 3.6 16.4 4.1 8 10.2 13.3 22.7 19.4 17.3 8.5 36.4 12.4 61 12.4 17.4 0 26.9-1.2 41.3-5 22.3-6 37.2-15.4 43-27.4 2.3-4.6 2.8-7.1 3-15.8l.4-10.2H296.5l5.9-5.6c12.6-11.8 35.4-19.9 64.6-22.7 1.9-.2-35.1-.5-82.2-.5L199 496l2.3-4.3c2-3.8 2.2-5.8 2.4-20.7.2-16.2.2-16.4-1.3-11.6-2.2 7.1-12.3 16.9-22.9 22.3-17.7 9-32.8 12.4-58.5 13-15.6.4-20.4.2-30.5-1.5-37-6.3-60.5-22.2-60.5-40.9 0-4.8 2.4-13.3 3.8-13.3.3 0 2.8 2.2 5.6 4.8 9.6 9.1 24.9 15.9 45.9 20.4 8.4 1.8 13.7 2.2 30.2 2.2 34 .2 56.5-5.8 75.2-19.9 5-3.7 6.9-5.9 9.8-11.7l3.5-7.1v-15.6c-.1-14-.2-15.2-1.4-12-2.9 8.3-8.1 14.2-18 20.4-27.6 17.5-79.7 21.6-116.4 9.1-17.2-5.9-31.3-16-36-25.7-2.8-5.7-2.9-13.8-.3-19.5l1.9-4.2 5.7 5.4c10 9.4 28.2 17.1 50.1 21 12 2.1 39 2.4 50.9.5 30.2-4.7 52.3-15.9 60.2-30.6 2.7-4.8 2.8-5.6 3-22 .1-9.4-.2-15.7-.6-14-3.9 15.3-23.4 28.2-52.1 34.6-40.3 8.9-89.1.5-110.3-19-3.2-3-7-7.7-8.5-10.5l-2.7-5.1-.3-38.3-.3-38.2h5.4c8 0 23.1-2.9 32.7-6.2 29.3-10.2 52.6-31 66.5-59.3 6.5-13.1 10.1-25.9 11.6-41.3l1.2-11.2h407.5l.7 7.7c2.2 24.2 10.1 45.3 23.9 63.6 19.3 25.7 51.8 43.5 82.9 45.4l9.7.6v113.6l-4.2.5c-29.2 3.3-41.8 7.4-60.7 20-29.8 19.8-48.6 52.6-51.6 89.8l-.7 8.8-83.2.2c-45.7 0-81.5.3-79.6.5 18.8 1.9 30.4 4.4 42.8 9.4 8.7 3.4 19.3 10.2 24.1 15.3l3.5 3.6H700V88H0v218.5zm32.5 69.7c.5 1.4.2 1.8-1.4 1.8-1.9 0-2.1-.6-2.1-5.3l.1-5.2 1.3 3.5c.7 1.9 1.7 4.3 2.1 5.2zm16.4 133.1c12.2 7.1 26.4 11.8 43.5 14.3 16.4 2.4 45.2 1.5 59.6-1.9 19.3-4.6 34-11.6 43.6-20.8l4.1-4 1.9 4.2c7.6 16.9-6.8 35-35.6 44.9-18.1 6.2-41.8 8.9-61.7 7.1-36.1-3.2-63.3-15.4-71.9-32.2-3.1-6.2-3.3-14.3-.4-19.9l2-3.9 4.6 4.5c2.5 2.4 7.2 5.9 10.3 7.7z"/><path d="M333.7 176.6c-22 4-40.8 14.4-57.9 32.2-11.1 11.6-18.8 22.8-25.7 37.3-39.7 83-4.9 190.6 69.6 215.2 21.1 7 40 6.9 60.8-.1C448 438.3 484.2 347.1 458 265.8c-4.2-13.1-14.8-33.8-22.3-43.8-11.9-15.7-29.1-30.3-44-37.4-18.1-8.5-39.1-11.4-58-8zm45.5 136.6c.2 60.1.6 81 1.5 83 2.1 4.8 8 6.9 23 8.1 12.7 1 13.4 1.2 13.1 3.1-.3 2.1-.5 2.1-56 2.4l-55.8.2v-2.3c0-2.3.3-2.4 13.3-3.4 14.4-1.1 19.6-2.7 22.5-7.2 1.5-2.3 1.7-8.3 1.7-66.6 0-69.8 0-69.6-5.7-73.6-4.2-3.1-13.9-3.5-25.1-1.1-8.4 1.7-8.8 1.7-10.4 0-1.3-1.4-1.3-1.9-.2-2.3 7-2.6 71.3-20.4 74.1-20.4l3.7-.1.3 80.2zM291.3 556.5c.2 16.7.4 18.4 2.6 22.8 5.9 12 21.3 22 43.6 28.2 7.5 2.1 7.8 2.3 5 3.1-5.7 1.7-40.2 1-50-.9-29.6-5.9-49.4-16.8-56.1-31.2l-2.4-5v15.1c0 14.1.1 15.3 2.6 20.2 7.1 14.2 30.5 26.4 59.4 30.7 11.2 1.7 36.6 1.9 47.6.4 25-3.5 48.4-13.7 58-25.5 2-2.4 4.4-4.4 5.3-4.4.9 0 5.9-1.1 11.1-2.4 23.5-6 40.5-16.8 46.1-29 1.5-3.4 1.9-6.7 1.9-19v-15l-2.6 5.2c-6.6 13.2-26.1 24.5-51.1 29.7-31.9 6.6-69.6 2.9-93.7-9.2-16-7.9-22.6-14.9-26.2-27.3-1.2-4-1.3-2.7-1.1 13.5zM29.3 586c.3 16.8.4 17.7 2.9 22.6 6.8 13 25.7 23.9 51.3 29.6 11.5 2.5 42 3.6 54.8 1.9 30.1-4 55-16.4 62.9-31.2 2.1-4 2.3-5.9 2.5-20.9.3-14.7.2-16.1-1-12.9-3.2 8.4-8.2 14.2-18.1 20.4-17.7 11.2-46.2 17.4-74.6 16.2-42.2-1.8-75.6-18-80-38.8-.6-3.2-.8.6-.7 13.1z"/></svg>